<svg width="1018" height="152" viewBox="0 0 1018 152" fill="none" xmlns="http://www.w3.org/2000/svg">
<path fill-rule="evenodd" clip-rule="evenodd" d="M105.16 6.94829C90.0386 -0.164921 73.0102 -1.8764 56.8188 2.0901C40.6276 6.05658 26.218 15.4695 15.9111 28.8105C5.60428 42.1513 -4.00052e-06 58.6434 0 75.6293C4.00053e-06 92.6152 5.6043 109.107 15.9111 122.448C26.218 135.789 40.6276 145.202 56.8188 149.169C73.0102 153.135 90.0387 151.424 105.16 144.31C120.281 137.197 132.613 125.097 140.171 109.962L140.333 109.637L114.706 96.3129L114.539 96.6483C109.912 105.914 102.364 113.318 93.1123 117.671C83.8604 122.023 73.4426 123.07 63.5371 120.643C53.6315 118.216 44.8135 112.457 38.5049 104.291C32.1962 96.1257 28.7647 86.0294 28.7647 75.6293C28.7647 65.2293 32.1962 55.1329 38.5049 46.9671C44.8135 38.8015 53.6314 33.0421 63.5371 30.6155C73.4426 28.1889 83.8604 29.2358 93.1122 33.5879C102.364 37.9401 109.912 45.3448 114.539 54.6103L114.706 54.9457L140.333 41.6217L140.171 41.2969C132.613 26.1614 120.281 14.0614 105.16 6.94829ZM305.021 2.96597H404.333V31.3195H333.928V59.6435H395.445V87.997H333.928V120.681H404.333V149.034H305.021V2.96597ZM428.815 2.96597H463.737L509.974 114.272L556.21 2.96597H591.132V149.034H561.973V60.2098L525.039 149.034H494.909L458.173 60.82L457.973 149.034H428.815V2.96597ZM891.721 2.96597H920.627V59.6435H989.093V2.96597H1018V149.034H989.093V87.997H920.627V149.034H891.721V2.96597ZM871.877 2.96597H745.136V31.3195H794.054V149.034H822.96V31.3195H871.877V2.96597ZM665.571 2.96597H699.766L757.906 149.034H725.851L712.293 114.673C712.219 114.699 712.134 114.729 712.038 114.763C711.647 114.9 711.072 115.094 710.331 115.328C708.848 115.795 706.698 116.416 704.026 117.038C698.683 118.281 691.245 119.524 682.872 119.524C674.498 119.524 666.96 118.281 661.516 117.038C658.794 116.417 656.594 115.795 655.073 115.329C654.312 115.095 653.722 114.901 653.32 114.764L653.131 114.699L653.048 114.67L639.691 149.034H607.839L665.571 2.96597ZM664.266 86.1894L664.291 86.2007C664.517 86.3 664.853 86.4427 665.293 86.6145C666.174 86.958 667.47 87.4173 669.124 87.8771C672.431 88.7967 677.167 89.7172 682.872 89.7172C688.576 89.7172 693.261 88.7968 696.517 87.8775C698.145 87.4179 699.415 86.9588 700.277 86.6155C700.707 86.4439 701.036 86.3012 701.255 86.202L701.275 86.193L682.671 39.0223L664.266 86.1894ZM160.658 2.96597H189.564V90.8294C189.564 101.013 192.326 109.067 197.523 114.573C202.718 120.076 210.393 123.083 220.323 123.083C230.253 123.083 237.928 120.076 243.122 114.573C248.32 109.067 251.082 101.013 251.082 90.8294V2.96597H279.987V90.8294C279.987 109.44 274.405 124.74 264.133 135.389C253.86 146.04 238.933 152 220.323 152C201.712 152 186.786 146.04 176.512 135.389C166.241 124.74 160.658 109.44 160.658 90.8294V2.96597Z" fill="black"/>
</svg>
